# xmcd
#
# Track frame offsets:
#	150
#	18392
#	33690
#	53287
#	71925
#	94065
#	115270
#	131985
#	141067
#	157030
#	173142
#	198692
#	217557
#
# Disc length: 3338 seconds
#
# Revision: 1
# Processed by: cddbd v1.5.1PL0 Copyright (c) Steve Scherf et al.
# Submitted via: CDex 1.50Beta5
#
DISCID=ba0d080d
DTITLE=ロティカ - 絶体絶命のピンチ
DYEAR=1900
DGENRE=
TTITLE0=絶体絶命のピンチに尻尾を高く上げろ!
TTITLE1=逃亡天使
TTITLE2=JET ROCK'NROLL COASTER
TTITLE3=ポケットの中のロックンロール
TTITLE4=REBEL CATHARSIS
TTITLE5=ひとめぼれだよ人生は
TTITLE6=UPPER MY THUMB
TTITLE7=H・D・G
TTITLE8=誰ノ為ニ走ルンダ
TTITLE9=SHIBI DE BABI DE BOO!
TTITLE10=世界中にアイ・ラヴ・ユー、OK
TTITLE11=旅に出よう
TTITLE12=ROCK MUST GO ON
EXTD=
EXTT0=
EXTT1=
EXTT2=
EXTT3=
EXTT4=
EXTT5=
EXTT6=
EXTT7=
EXTT8=
EXTT9=
EXTT10=
EXTT11=
EXTT12=
PLAYORDER=
